<?xml version="1.0" standalone="no"?>
<!DOCTYPE svg PUBLIC "-//W3C//DTD SVG 20010904//EN"
 "http://www.w3.org/TR/2001/REC-SVG-20010904/DTD/svg10.dtd">
<svg version="1.0" xmlns="http://www.w3.org/2000/svg"
 width="64.000000pt" height="64.000000pt" viewBox="0 0 64.000000 64.000000"
 preserveAspectRatio="xMidYMid meet">

<g transform="translate(0.000000,64.000000) scale(0.100000,-0.100000)"
fill="#000000" stroke="none">
<path d="M76 624 c-22 -22 -23 -134 -1 -134 12 0 15 13 15 60 l0 60 230 0 230
0 0 -60 c0 -47 3 -60 15 -60 22 0 21 112 -1 134 -23 24 -465 24 -488 0z"/>
<path d="M180 507 c-35 -12 -35 -12 -49 -104 -10 -64 -19 -93 -28 -93 -7 0
-13 5 -13 10 0 6 -7 10 -15 10 -9 0 -15 -9 -15 -24 0 -14 -5 -28 -10 -31 -15
-9 -13 -248 2 -263 7 -7 32 -12 56 -12 39 0 45 3 55 30 l11 30 146 0 146 0 11
-30 c10 -27 16 -30 55 -30 24 0 49 5 56 12 15 15 17 254 2 263 -5 3 -10 17
-10 31 0 15 -6 24 -15 24 -8 0 -15 -4 -15 -10 0 -5 -6 -10 -13 -10 -10 0 -18
26 -26 82 -6 45 -17 89 -25 96 -7 7 -31 18 -52 22 -55 13 -212 11 -254 -3z
m265 -25 c27 -8 31 -14 37 -57 4 -27 5 -52 2 -55 -9 -8 -240 -13 -289 -5 l-44
6 6 47 c3 26 9 51 14 56 22 24 196 29 274 8z m52 -174 c4 -23 11 -28 34 -28
36 0 51 -27 47 -83 l-3 -42 -255 0 -255 0 -3 42 c-4 56 11 83 47 83 23 0 30 5
34 28 l6 27 171 0 171 0 6 -27z m81 -200 c3 -17 -14 -18 -257 -18 -211 0 -261
3 -261 13 0 8 3 17 7 21 4 3 119 5 257 4 230 -3 251 -4 254 -20z m-438 -63 c0
-11 -11 -15 -40 -15 -29 0 -40 4 -40 15 0 11 11 15 40 15 29 0 40 -4 40 -15z
m440 0 c0 -11 -11 -15 -40 -15 -29 0 -40 4 -40 15 0 11 11 15 40 15 29 0 40
-4 40 -15z"/>
<path d="M231 296 c-7 -8 -11 -36 -9 -63 l3 -48 95 0 95 0 3 48 c4 69 -6 77
-98 77 -55 0 -81 -4 -89 -14z m167 -53 l-3 -38 -75 0 -75 0 -3 38 -3 37 81 0
81 0 -3 -37z"/>
<path d="M102 252 c-8 -5 -12 -22 -10 -38 3 -27 6 -29 48 -29 45 0 45 0 45 35
0 33 -2 35 -35 38 -19 1 -41 -2 -48 -6z m66 -34 c-7 -20 -48 -23 -48 -4 0 11
9 16 26 16 16 0 24 -5 22 -12z"/>
<path d="M454 246 c-3 -8 -4 -25 -2 -38 3 -20 9 -23 48 -23 42 0 45 2 48 29 2
16 -2 32 -10 37 -22 14 -78 10 -84 -5z m66 -32 c0 -10 -7 -14 -22 -12 -32 5
-35 28 -4 28 17 0 26 -5 26 -16z"/>
<path d="M26 454 c-17 -45 3 -114 34 -114 32 0 40 14 40 71 l0 59 -34 0 c-22
0 -36 -6 -40 -16z m49 -44 c0 -18 -6 -35 -12 -37 -9 -3 -13 8 -13 37 0 29 4
40 13 38 6 -3 12 -20 12 -38z"/>
<path d="M547 463 c-4 -3 -7 -28 -7 -54 0 -38 4 -51 19 -59 25 -13 27 -13 45
6 16 15 21 69 10 98 -6 16 -54 22 -67 9z m43 -59 c0 -19 -4 -34 -10 -34 -5 0
-10 18 -10 41 0 24 4 38 10 34 6 -3 10 -22 10 -41z"/>
</g>
</svg>
